<?xml version="1.0" encoding="utf-8"?>
<!-- Generator: Adobe Illustrator 21.0.0, SVG Export Plug-In . SVG Version: 6.00 Build 0)  -->
<svg version="1.1" id="图层_1" xmlns="http://www.w3.org/2000/svg" xmlns:xlink="http://www.w3.org/1999/xlink" x="0px" y="0px"
	 viewBox="0 0 22 22" style="enable-background:new 0 0 22 22;" xml:space="preserve">
<style type="text/css">
	.st0{fill:#20ADE5;}
</style>
<g>
	<polygon class="st0" points="10.3,9.8 10.2,9.8 10.1,9.6 10,9.5 10,8.1 10.1,8 10.2,7.9 10.3,7.8 16.6,7.8 16.7,7.9 16.8,8 
		16.9,8.1 16.9,9.5 16.8,9.6 16.7,9.8 16.6,9.8 	"/>
	<polygon class="st0" points="10.3,19.8 10.2,19.8 10.1,19.7 10,19.5 10,4.7 10.1,4.6 10.2,4.4 10.3,4.4 11.7,4.4 11.8,4.4 
		11.9,4.6 12,4.7 12,19.5 11.9,19.7 11.8,19.8 11.7,19.8 	"/>
	<path class="st0" d="M11,6.1c-0.4,0-0.8-0.1-1.2-0.2c-0.4-0.2-0.7-0.4-1-0.7C8.5,5,8.3,4.6,8.2,4.3C8,3.9,7.9,3.5,7.9,3.1
		S8,2.3,8.1,1.9c0.2-0.4,0.4-0.7,0.7-1s0.6-0.5,1-0.7C10.2,0.1,10.6,0,11,0s0.8,0.1,1.2,0.2c0.4,0.2,0.7,0.4,1,0.7s0.5,0.6,0.7,1
		s0.2,0.8,0.2,1.2S14,3.9,13.9,4.3c-0.1,0.3-0.3,0.5-0.4,0.7L13,5.4c-0.3,0.2-0.5,0.4-0.8,0.5C11.8,6.1,11.4,6.1,11,6.1z M11,1.8
		c-0.7,0-1.2,0.6-1.2,1.2s0.6,1.2,1.2,1.2c0.7,0,1.2-0.6,1.2-1.2S11.7,1.8,11,1.8z"/>
	<path class="st0" d="M17.3,22c-0.4,0-0.8-0.1-1.2-0.2c-0.4-0.2-0.7-0.4-1-0.7c-0.3-0.3-0.5-0.6-0.7-1s-0.2-0.8-0.2-1.2
		s0.1-0.8,0.2-1.2c0.2-0.4,0.4-0.7,0.7-1s0.6-0.5,1-0.7s0.8-0.2,1.2-0.2c0.4,0,0.8,0.1,1.2,0.2c0.4,0.2,0.7,0.4,1,0.7s0.5,0.6,0.7,1
		s0.2,0.8,0.2,1.2s-0.1,0.8-0.2,1.2c-0.1,0.3-0.3,0.5-0.4,0.7l-0.4,0.4c-0.3,0.2-0.5,0.4-0.8,0.5C18.1,21.9,17.7,22,17.3,22z
		 M17.3,17.7c-0.7,0-1.2,0.6-1.2,1.2c0,0.7,0.6,1.2,1.2,1.2c0.7,0,1.2-0.6,1.2-1.2C18.5,18.2,18,17.7,17.3,17.7z"/>
	<polygon class="st0" points="5.3,13.8 5.1,13.7 5,13.6 5,13.5 5,12.1 5,12 5.1,11.9 5.3,11.8 11.7,11.8 11.8,11.9 11.9,12 12,12.1 
		12,13.5 11.9,13.6 11.8,13.7 11.7,13.8 	"/>
	<path class="st0" d="M3.1,15.9c-0.4,0-0.8-0.1-1.2-0.2c-0.4-0.2-0.7-0.4-1-0.7s-0.5-0.6-0.7-1C0.1,13.6,0,13.2,0,12.8
		s0.1-0.8,0.2-1.2c0.2-0.4,0.4-0.7,0.7-1s0.6-0.5,1-0.7s0.8-0.2,1.2-0.2s0.8,0.1,1.2,0.2c0.4,0.2,0.7,0.4,1,0.7s0.5,0.6,0.7,1
		s0.2,0.8,0.2,1.2S6.1,13.6,6,14c-0.1,0.3-0.3,0.5-0.4,0.7L5,15.2c-0.3,0.2-0.5,0.4-0.8,0.5C3.9,15.8,3.5,15.9,3.1,15.9z M3.1,11.6
		c-0.7,0-1.2,0.6-1.2,1.2c0,0.7,0.6,1.2,1.2,1.2c0.7,0,1.2-0.6,1.2-1.2C4.3,12.1,3.8,11.6,3.1,11.6z"/>
	<path class="st0" d="M18.9,11.9c-0.4,0-0.8-0.1-1.2-0.2c-0.4-0.2-0.7-0.4-1-0.7s-0.5-0.6-0.7-1s-0.2-0.8-0.2-1.2S15.9,8,16,7.6
		c0.2-0.4,0.4-0.7,0.7-1s0.6-0.5,1-0.7s0.8-0.2,1.2-0.2c0.4,0,0.8,0.1,1.2,0.2c0.4,0.2,0.7,0.4,1,0.7c0.3,0.3,0.5,0.6,0.7,1
		C21.9,8,22,8.4,22,8.8c0,0.4-0.1,0.8-0.2,1.2c-0.1,0.3-0.3,0.5-0.4,0.7L21,11.1c-0.3,0.2-0.5,0.4-0.8,0.5
		C19.7,11.8,19.3,11.9,18.9,11.9z M18.9,7.6c-0.7,0-1.2,0.6-1.2,1.2c0,0.7,0.6,1.2,1.2,1.2c0.7,0,1.2-0.6,1.2-1.2
		C20.2,8.2,19.6,7.6,18.9,7.6z"/>
	<polygon class="st0" points="10.3,19.8 10.2,19.8 10.1,19.7 10,19.5 10,18.3 10.1,18.2 10.2,18.1 10.3,18 15.2,18 15.3,18.1 
		15.4,18.2 15.5,18.3 15.5,19.5 15.4,19.7 15.3,19.8 15.2,19.8 	"/>
</g>
</svg>
