<?xml version="1.0" encoding="utf-8"?>
<!-- Generator: Adobe Illustrator 21.0.0, SVG Export Plug-In . SVG Version: 6.00 Build 0)  -->
<svg version="1.1" id="图层_1" xmlns="http://www.w3.org/2000/svg" xmlns:xlink="http://www.w3.org/1999/xlink" x="0px" y="0px"
	 viewBox="0 0 22 22" style="enable-background:new 0 0 22 22;" xml:space="preserve">
<style type="text/css">
	.st0{fill:#20ADE5;}
</style>
<g>
	<path class="st0" d="M0.9,21.3c-0.5,0-0.9-0.4-0.9-0.9V4.5C0,4,0.4,3.7,0.9,3.7H21c0.5,0,0.9,0.4,0.9,0.9v15.9
		c0,0.5-0.4,0.9-0.9,0.9H0.9z M20.1,19.6V5.5H1.9v14.1H20.1z"/>
	<path class="st0" d="M8.4,16.2c-0.5,0-0.9-0.4-0.9-0.9s0.4-0.9,0.9-0.9h5.2c0.5,0,0.9,0.4,0.9,0.9s-0.4,0.9-0.9,0.9H8.4z M0.9,5.4
		c-0.4,0-0.7-0.2-0.8-0.5C0,4.7,0,4.3,0.1,4l3.1-3C3.3,0.9,3.5,0.7,4,0.7h13.7c0.2,0,0.6,0.1,0.8,0.4L21.8,4C22,4.3,22,4.7,21.9,4.9
		c-0.1,0.3-0.5,0.5-0.9,0.5H0.9z M19,3.7l-1.8-1.2H4.5L2.8,3.7H19z"/>
</g>
</svg>
