<?xml version="1.0" standalone="no"?><!DOCTYPE svg PUBLIC "-//W3C//DTD SVG 1.1//EN" "http://www.w3.org/Graphics/SVG/1.1/DTD/svg11.dtd"><svg t="1558339732758" class="icon" style="" viewBox="0 0 1024 1024" version="1.1" xmlns="http://www.w3.org/2000/svg" p-id="7558" xmlns:xlink="http://www.w3.org/1999/xlink" width="200" height="200"><defs><style type="text/css"></style></defs><path d="M707.2 176l-384 0c-89.6 0-160 70.4-160 160l0 320c0 89.6 70.4 160 160 160l384 0c89.6 0 160-70.4 160-160l0-320C867.2 246.4 796.8 176 707.2 176zM707.2 240c22.4 0 41.6 6.4 57.6 19.2l-230.4 179.2c-12.8 9.6-28.8 9.6-38.4 0L265.6 259.2c16-12.8 35.2-19.2 57.6-19.2L707.2 240zM803.2 656c0 54.4-41.6 96-96 96l-384 0c-54.4 0-96-41.6-96-96l0-320c0-9.6 0-16 3.2-22.4l224 176c16 12.8 38.4 19.2 60.8 19.2 22.4 0 41.6-6.4 60.8-19.2l224-176c3.2 6.4 3.2 16 3.2 22.4L803.2 656z" fill="#777" size="5" p-id="7559"></path></svg>