<?xml version="1.0" encoding="utf-8"?>
<!-- Generator: Adobe Illustrator 21.0.0, SVG Export Plug-In . SVG Version: 6.00 Build 0)  -->
<svg version="1.1" id="图层_1" xmlns="http://www.w3.org/2000/svg" xmlns:xlink="http://www.w3.org/1999/xlink" x="0px" y="0px"
	 viewBox="0 0 22 22" style="enable-background:new 0 0 22 22;" xml:space="preserve">
<style type="text/css">
	.st0{fill:#20ADE5;}
</style>
<path class="st0" d="M14.1,5.2L11,8.3L7.9,5.2C7.6,4.9,7,4.9,6.7,5.2c-0.3,0.3-0.3,0.9,0,1.2l2.8,2.8H8c-0.5,0-0.9,0.4-0.9,0.9
	C7.1,10.6,7.5,11,8,11h2.2v1.4H8c-0.5,0-0.9,0.4-0.9,0.9s0.4,0.9,0.9,0.9h2.2v1.9c0,0.5,0.4,0.9,0.9,0.9s0.9-0.4,0.9-0.9v-1.9h2.2
	c0.5,0,0.9-0.4,0.9-0.9s-0.4-0.9-0.9-0.9H12V11h2.2c0.5,0,0.9-0.4,0.9-0.9s-0.4-0.9-0.9-0.9h-1.6l2.8-2.8c0.3-0.3,0.3-0.9,0-1.2
	C15,4.9,14.4,4.9,14.1,5.2L14.1,5.2z"/>
<g>
	<path class="st0" d="M1.5,22C0.7,22,0,21.2,0,20.3V1.7C0,0.8,0.7,0,1.5,0h19C21.3,0,22,0.8,22,1.7v18.6c0,0.9-0.7,1.7-1.5,1.7
		C20.5,22,1.5,22,1.5,22z M20.4,20.1V1.7H1.6v18.4H20.4z"/>
</g>
</svg>
