<?xml version="1.0" standalone="no"?><!DOCTYPE svg PUBLIC "-//W3C//DTD SVG 1.1//EN" "http://www.w3.org/Graphics/SVG/1.1/DTD/svg11.dtd"><svg t="1552284874539" class="icon" style="" viewBox="0 0 1024 1024" version="1.1" xmlns="http://www.w3.org/2000/svg" p-id="23400" xmlns:xlink="http://www.w3.org/1999/xlink" width="200" height="200"><defs><style type="text/css"></style></defs><path d="M954.854 431.409c-20.689-33.413-55.902-52.204-92.422-53.654-1.898-0.287-3.817-0.489-5.777-0.489l-213.927-0.228c14.888-42.583 22.488-87.374 22.427-132.451-0.019-29.493-3.29-58.883-9.701-87.662l-0.573 0.083c-11.396-49.427-55.616-86.355-108.516-86.355-61.6 0-111.537 49.938-111.537 111.497 0 3.411-1.17 6.762-0.865 10.091C430.654 310.599 342.5 406.553 219.5 414.927v0.715l-125.807 0.304c-1.531-0.203-2.386-0.304-3.96-0.304-10.17 0-19.588 4.023-26.775 11.21-7.171 7.211-11.06 16.934-11.06 27.106l-0.238 460.121c0 21.157 17.201 38.314 38.36 38.314 2.041 0 4.114-0.203 6.137-0.55h203.761c19.257-2.038 34.582-17.93 34.582-37.691v-0.305c0-21.179-17.169-38.348-38.348-38.348h-14.426l0.369-392.59C383.46 457.133 464.587 380.631 496.859 282.02c0.04 0.021 0.1 0.012 0.163 0.055 3.268-9.702 6.821-16.726 9.353-29.902 5.962-31.042 5.371-55.673 5.371-55.673h0.493c-0.009-5-0.02-8.331-0.032-10.202 1.251-18.85 16.76-36.043 35.75-36.043 19.748 0 35.77 8.879 35.843 28.572-0.013-0.922-0.063-5.327-0.098-5.327h0.306s5.721 32.944 5.76 64.378c0.082 39.704-5.002 64.622-5.002 64.622h-0.494c-6.187 40-17.236 64.996-32.758 93.938l0.408 1.137c-2.533 5.105-4.004 11.223-4.004 17.331 0 21.158 17.155 35.552 38.336 35.571L848 448.016s52.833-1.508 44.644 53.483l-78.126 352.78-0.1-0.084c-2.82 6.74-7.641 12.499-13.829 16.399a35.071 35.071 0 0 1-14.439 5.249c-1.613-0.203-3.519-0.368-5.213-0.368l-354.437-0.143v0.001h-14.652c-21.179 0-38.348 17.336-38.348 38.515v0.305c0 21.179 17.169 38.348 38.348 38.348h17.305c2.11 0 4.178-0.178 6.196-0.506l348.152 0.135v0.265c19 0.063 41.419-6.025 59.617-17.583 17.911-11.42 30.771-27.064 39.657-44.793 2.51-3.613 4.056-7.637 5.177-11.865l82.662-365.577c1.169-4.329 1.301-8.701 0.953-12.908 1.816-23.958-4.009-47.877-16.713-68.26zM205.074 867.5h-76.65l0.367-378.869 76.57-2.099-0.287 380.968z" p-id="23401"></path></svg>