<?xml version="1.0" standalone="no"?><!DOCTYPE svg PUBLIC "-//W3C//DTD SVG 1.1//EN" "http://www.w3.org/Graphics/SVG/1.1/DTD/svg11.dtd"><svg t="1552284520798" class="icon" style="" viewBox="0 0 1024 1024" version="1.1" xmlns="http://www.w3.org/2000/svg" p-id="18266" xmlns:xlink="http://www.w3.org/1999/xlink" width="200" height="200"><defs><style type="text/css"></style></defs><path d="M498.544 197.32L190.008 335.344l323.152 134.784 315.024-133.152-329.64-139.656z m-310.16 474.232l305.288 142.896v-316.72l-305.288-125.04v298.864z m95.808-193.304l121.792 56.896v43.84L284.192 522.16v-43.912z m248.448 19.488v316.72l305.288-151.016V366.2L532.64 497.736z" fill="" p-id="18267"></path><path d="M970.704 764.064h-48.616c116-190.408 87.864-436.24-72.16-596.168-189.768-189.672-498.504-189.672-688.272 0-189.768 189.64-189.768 498.256 0 687.912 93.448 93.392 218.072 142.544 344.456 142.544a485.832 485.832 0 0 0 213.304-49.296 33.92 33.92 0 0 0 15.584-45.392 33.976 33.976 0 0 0-45.384-15.608c-160.608 78.408-353.496 46.16-479.976-80.248-163.264-163.184-163.264-428.712 0-591.928 163.264-163.192 428.944-163.168 592.248 0 135.448 135.368 161.128 342.24 66.968 504.848 0 0-18.6 43.768-37.36 43.768s-30.56 14.784-30.56 33.504c0 18.736 15.2 33.92 33.96 33.92h135.808a33.928 33.928 0 1 0 0-67.856z" fill="" p-id="18268"></path></svg>