<?xml version="1.0" standalone="no"?><!DOCTYPE svg PUBLIC "-//W3C//DTD SVG 1.1//EN" "http://www.w3.org/Graphics/SVG/1.1/DTD/svg11.dtd"><svg t="1552284784620" class="icon" style="" viewBox="0 0 1024 1024" version="1.1" xmlns="http://www.w3.org/2000/svg" p-id="20272" xmlns:xlink="http://www.w3.org/1999/xlink" width="200" height="200"><defs><style type="text/css"></style></defs>
<path d="M379.884 899.846c-73.344 0-133.007-59.678-133.007-133.022 0-73.33 59.663-132.977 133.007-132.977 73.33 0 132.992 59.648 132.992 132.977 0 73.344-59.663 133.022-132.992 133.022z m0-202.243c-38.183 0-69.251 31.053-69.251 69.22 0 38.198 31.068 69.266 69.251 69.266s69.236-31.068 69.236-69.266c-0.001-38.167-31.054-69.22-69.236-69.22z m414.883 202.243c-73.344 0-133.007-59.678-133.007-133.022 0-73.33 59.663-132.977 133.007-132.977 73.33 0 132.977 59.648 132.977 132.977 0 73.344-59.648 133.022-132.977 133.022z m0-202.243c-38.182 0-69.251 31.053-69.251 69.22 0 38.198 31.069 69.266 69.251 69.266 38.166 0 69.22-31.068 69.22-69.266 0-38.167-31.054-69.22-69.22-69.22zM21.011 338.323h483v60.374h-483v-60.375z m709.15 168.845h224.105v68.561H730.162v-68.561z m0-143.263h128.937v68.562H730.162v-68.562zM39.43 468.282h343.83v59.352H39.43v-59.352zM646.054 807.87h-165.01v-63.758h101.254V188.065H177.454v556.047h103.355v63.758H113.698V124.308h532.356zM1002.625 807.87H892.391v-63.758h46.478v-212.92L739.926 301.958h-93.61v442.154h44.64v63.758H582.56V238.202h186.443l233.623 269.175z" fill="#fff" p-id="20273"></path></svg>