<?xml version="1.0" encoding="utf-8"?>
<!-- Generator: Adobe Illustrator 21.0.0, SVG Export Plug-In . SVG Version: 6.00 Build 0)  -->
<svg version="1.1" id="图层_1" xmlns="http://www.w3.org/2000/svg" xmlns:xlink="http://www.w3.org/1999/xlink" x="0px" y="0px"
	 viewBox="0 0 22 22" style="enable-background:new 0 0 22 22;" xml:space="preserve">
<style type="text/css">
	.st0{fill:#20ADE5;}
</style>
<g>
	<g>
		<path class="st0" d="M1.5,18.5c-0.8,0-1.5-0.8-1.5-1.7v-15C0,0.8,0.7,0,1.5,0h19C21.3,0,22,0.8,22,1.7v15c0,0.9-0.7,1.7-1.5,1.7
			C20.5,18.5,1.5,18.5,1.5,18.5z M20.4,16.5V1.7H1.6v14.8H20.4z"/>
	</g>
	<path class="st0" d="M16.5,15.3c-0.5,0-0.9-0.4-0.9-0.9V5.6c0-0.5,0.4-0.9,0.9-0.9s0.9,0.4,0.9,0.9v8.8
		C17.4,14.9,17,15.3,16.5,15.3z"/>
	<path class="st0" d="M11,15.3c-0.5,0-0.9-0.4-0.9-0.9V8.6c0-0.5,0.4-0.9,0.9-0.9s0.9,0.4,0.9,0.9v5.8C11.9,14.9,11.5,15.3,11,15.3z
		"/>
	<path class="st0" d="M5.5,15.2c-0.5,0-0.9-0.4-0.9-0.9v-3.8C4.6,10,5,9.7,5.5,9.7s0.9,0.4,0.9,0.9v3.8C6.4,14.8,6,15.2,5.5,15.2z"
		/>
	<path class="st0" d="M7.6,21.8c-0.4-0.3-0.5-0.8-0.2-1.2l2.2-3.1c0.3-0.4,0.8-0.5,1.2-0.2s0.5,0.8,0.2,1.2l-2.2,3.1
		C8.5,22,8,22.1,7.6,21.8z"/>
	<path class="st0" d="M14.4,21.8c0.4-0.3,0.5-0.8,0.2-1.2l-2.2-3.1c-0.3-0.4-0.8-0.5-1.2-0.2s-0.5,0.8-0.2,1.2l2.2,3.1
		C13.5,22,14,22.1,14.4,21.8z"/>
</g>
</svg>
