<?xml version="1.0" standalone="no"?><!DOCTYPE svg PUBLIC "-//W3C//DTD SVG 1.1//EN" "http://www.w3.org/Graphics/SVG/1.1/DTD/svg11.dtd"><svg t="1552102402227" class="icon" style="" viewBox="0 0 1092 1024" version="1.1" xmlns="http://www.w3.org/2000/svg" p-id="7098" xmlns:xlink="http://www.w3.org/1999/xlink" width="213.28125" height="200"><defs><style type="text/css"></style></defs><path d="M0 464.213333C0 204.8 245.76 0 546.133333 0s546.133333 204.8 546.133334 464.213333-245.76 464.213333-546.133334 464.213334c-54.613333 0-102.4-6.826667-157.013333-20.48L211.626667 1024v-197.973333C81.92 744.106667 0 607.573333 0 464.213333z m279.893333 327.68v102.4l95.573334-61.44 34.133333 6.826667c47.786667 13.653333 88.746667 13.653333 136.533333 13.653333 266.24 0 477.866667-177.493333 477.866667-395.946666C1024 245.76 812.373333 68.266667 546.133333 68.266667S68.266667 245.76 68.266667 464.213333c0 122.88 68.266667 232.106667 184.32 307.2l27.306666 20.48zM204.8 477.866667c0-40.96 27.306667-68.266667 68.266667-68.266667s68.266667 27.306667 68.266666 68.266667-27.306667 68.266667-68.266666 68.266666c-20.48 0-34.133333-6.826667-47.786667-20.48-13.653333-13.653333-20.48-27.306667-20.48-47.786666z m273.066667 0c0-40.96 27.306667-68.266667 68.266666-68.266667s68.266667 27.306667 68.266667 68.266667-27.306667 68.266667-68.266667 68.266666c-20.48 0-34.133333-6.826667-47.786666-20.48-13.653333-13.653333-20.48-27.306667-20.48-47.786666z m273.066666 0c0-40.96 27.306667-68.266667 68.266667-68.266667s68.266667 27.306667 68.266667 68.266667-27.306667 68.266667-68.266667 68.266666c-20.48 0-34.133333-6.826667-47.786667-20.48-13.653333-13.653333-20.48-27.306667-20.48-47.786666z" fill="#666666" p-id="7099"></path></svg>