<?xml version="1.0" encoding="utf-8"?>
<!DOCTYPE svg PUBLIC "-//W3C//DTD SVG 1.1//EN" "http://www.w3.org/Graphics/SVG/1.1/DTD/svg11.dtd">
<svg version="1.1" id="图层_1" xmlns="http://www.w3.org/2000/svg" xmlns:xlink="http://www.w3.org/1999/xlink" x="0px" y="0px"
	 viewBox="0 0 22 22" style="enable-background:new 0 0 22 22;" xml:space="preserve">
<style type="text/css">
	.st0{clip-path:url(#SVGID_2_);fill:#898989;}
	.st1{clip-path:url(#SVGID_4_);fill:#898989;}
	.st2{fill:#898989;}
	.st3{fill:#20ADE5;}
</style>



				<defs>
					<line id="SVGID_1_" x1="22" y1="22" x2="0.3" y2="22"/>
				</defs>
				<use xlink:href="#SVGID_1_"  style="overflow:visible;fill:#898989;"/>
				<clipPath id="SVGID_2_">
					<use xlink:href="#SVGID_1_"  style="overflow:visible;"/>
				</clipPath>
				<path class="st0" d="M21.6,19.2c0,0.1,0,0.4-0.3,0.5l-2.1,2.1c-0.1,0.1-0.3,0.2-0.5,0.2s-0.3-0.1-0.5-0.2l-2.1-1.7L14,21.8
					c-0.1,0.1-0.3,0.2-0.5,0.2s-0.3-0.1-0.5-0.2l-2.1-1.7L9,21.9c-0.1,0.1-0.3,0.2-0.5,0.2S8.1,22,8,21.9l-2.2-1.7l-2.2,1.7
					c-0.1,0.1-0.3,0.2-0.5,0.2S2.7,22,2.6,21.9l-2-2.1c-0.2-0.2-0.2-0.3-0.2-0.5 M2,19l1.4,1.3l2.1-1.7c0.1-0.1,0.3-0.1,0.4-0.1
					c0.2,0,0.4,0.1,0.5,0.2l2.2,1.7l2.1-1.7c0.1-0.1,0.3-0.2,0.5-0.2s0.3,0.1,0.5,0.2l2.1,1.7l2.1-1.7c0.1-0.1,0.3-0.2,0.5-0.2
					s0.3,0.1,0.5,0.2l2.1,1.7l1.4-1.4"/>
			
				<defs>
					<line id="SVGID_3_" x1="22" y1="22" x2="0.3" y2="22"/>
				</defs>
				<use xlink:href="#SVGID_3_"  style="overflow:visible;fill:#898989;"/>
				<clipPath id="SVGID_4_">
					<use xlink:href="#SVGID_3_"  style="overflow:visible;"/>
				</clipPath>
				<polyline class="st1" points="22.1,2 22.1,24 22,24.1 0.3,24.1 0.2,24 				"/>
		
		<path class="st2" d="M10.2,12.6 M24,11.1 M4.2,7L4.2,7"/>
	
	<path class="st3" d="M21.2,22c-0.1,0-0.1,0-0.2,0l0,0c-0.2,0-0.4-0.1-0.5-0.2L17.3,20l-2.5,1.8c-0.2,0.1-0.3,0.2-0.5,0.2
		s-0.4-0.1-0.5-0.2L11.2,20l-2.6,1.9c-0.3,0-0.5,0.1-0.7,0.1c-0.2,0-0.4-0.1-0.5-0.2L4.8,20l-3.1,1.8C1.6,21.9,1.4,22,1.2,22H1.1H1
		c-0.5,0-0.9-0.4-0.9-0.8V2.4C0.1,1.1,1.3,0,2.7,0h16.8c0.7,0,1.4,0.2,1.8,0.7c0.5,0.4,0.8,1,0.8,1.7v18.9
		C22.1,21.6,21.7,22,21.2,22z M4.9,18.2c0.2,0,0.4,0.1,0.5,0.2l2.5,1.8l2.6-1.9c0.2-0.1,0.3-0.2,0.5-0.2s0.4,0.1,0.5,0.2l2.6,1.8
		l2.5-1.8c0.2-0.1,0.3-0.2,0.5-0.2s0.4,0.1,0.5,0.2l2.5,1.4V2.4c0-0.4-0.4-0.8-0.9-0.8H2.7C2.2,1.6,1.8,2,1.8,2.4v17.4l2.5-1.4
		C4.5,18.3,4.7,18.2,4.9,18.2z"/>
	<path class="st3" d="M11.8,6.4c0,0.5-0.4,0.9-0.9,0.9H5.1c-0.5,0-0.9-0.4-0.9-0.9s0.4-0.9,0.9-0.9h5.8C11.4,5.5,11.8,5.9,11.8,6.4z
		"/>
	<path class="st3" d="M17.8,11.9c0,0.5-0.4,0.9-0.9,0.9H5.1c-0.5,0-0.9-0.4-0.9-0.9S4.6,11,5.1,11h11.8C17.4,11,17.8,11.4,17.8,11.9
		z"/>

</svg>
