<?xml version="1.0" encoding="utf-8"?>
<!-- Generator: Adobe Illustrator 21.0.0, SVG Export Plug-In . SVG Version: 6.00 Build 0)  -->
<svg version="1.1" id="图层_1" xmlns="http://www.w3.org/2000/svg" xmlns:xlink="http://www.w3.org/1999/xlink" x="0px" y="0px"
	 viewBox="0 0 22 22" style="enable-background:new 0 0 22 22;" xml:space="preserve">
<style type="text/css">
	.st0{fill:#20ADE5;}
</style>
<g>
	<path class="st0" d="M1.6,22c-0.8,0-1.5-0.7-1.5-1.7V6.2c0-0.9,0.7-1.7,1.5-1.7h19c0.8,0,1.5,0.7,1.5,1.7v14.2
		c0,0.9-0.7,1.7-1.5,1.7h-19V22z M20.4,20.2v-14H1.7v14H20.4z"/>
</g>
<g>
	<path class="st0" d="M7.6,6.2c-0.8,0-1.5-0.7-1.5-1.5V1.5C6.2,0.7,6.8,0,7.6,0h6.8C15.3,0,16,0.7,16,1.5v3.2c0,0.8-0.7,1.5-1.5,1.5
		H7.6z M14.4,4.5v-3H7.8v3H14.4z"/>
</g>
</svg>
