<?xml version="1.0" encoding="utf-8"?>
<!-- Generator: Adobe Illustrator 21.0.0, SVG Export Plug-In . SVG Version: 6.00 Build 0)  -->
<svg version="1.1" id="图层_1" xmlns="http://www.w3.org/2000/svg" xmlns:xlink="http://www.w3.org/1999/xlink" x="0px" y="0px"
	 viewBox="0 0 22 22" style="enable-background:new 0 0 22 22;" xml:space="preserve">
<style type="text/css">
	.st0{fill:#20ADE5;}
</style>
<path class="st0" d="M19,21.9c-0.9,0-1.6-0.8-1.6-1.8c0-1,0.7-1.8,1.6-1.8c0.9,0,1.6,0.8,1.6,1.8C20.6,21.1,19.9,21.9,19,21.9z
	 M6,21.9c-0.9,0-1.6-0.8-1.6-1.8c0-1,0.7-1.8,1.6-1.8c0.9,0,1.6,0.8,1.6,1.8C7.6,21.1,6.9,21.9,6,21.9z M5.3,17.1
	c-0.4,0-0.8-0.4-0.8-0.9L3,2.9H0.9C0.4,2.9,0,2.5,0,1.9s0.4-1,0.9-1h2.9c0.4,0,0.7,0.4,0.8,0.9l0.2,2.3h15.6c0.5,0,1,0.2,1.2,0.5
	C21.9,4.9,22,5.4,22,6c-0.5,4.1-1.4,10.2-1.4,10.2c-0.1,0.5-0.4,0.9-0.8,0.9H5.3z M18.9,15.1c0.3-1.7,0.9-5.9,1.2-9.1H5.1l1,9.1
	H18.9z"/>
</svg>
