<?xml version="1.0" encoding="utf-8"?>
<!-- Generator: Adobe Illustrator 21.0.0, SVG Export Plug-In . SVG Version: 6.00 Build 0)  -->
<svg version="1.1" id="图层_1" xmlns="http://www.w3.org/2000/svg" xmlns:xlink="http://www.w3.org/1999/xlink" x="0px" y="0px"
	 viewBox="0 0 38.8 32.3" style="enable-background:new 0 0 38.8 32.3;" xml:space="preserve">
<style type="text/css">
	.st0{fill:#CCCCCC;}
</style>
<path class="st0" d="M4.4,22.7c0.7-0.8,1-2,1.1-2.9c-1.7-1.9-3.4-4.3-3.4-6.7c0-6.3,7-11.5,14.5-11.5S31,6.7,31,13
	c0,6.3-7,11.5-14.5,11.5c-1.3,0-3.5-0.2-4.8-0.5c-1.4,0.8-2.7,0.9-5.4,1.2l-2.9,0.6C2.1,25.4,3.4,23.7,4.4,22.7L4.4,22.7z"/>
<path class="st0" d="M35.4,27.3c-0.6-0.7-0.8-1.7-1-2.5c0-0.2,0-0.4,0.2-0.6c1.7-1.9,4.2-4.2,4.2-6.5c0-4.5-2.1-8.4-6.4-10.3
	c-0.6-0.3-1.3-0.6-0.9,0c1.2,1.9,1.8,3.7,1.8,6.3c0,6.3-8.5,13-16,13c-0.8,0-2-0.1-3.1-0.2c2.6,1.7,5.8,2.7,9.1,2.7
	c1.3,0,3.3-0.1,4.6-0.4c0.2,0,0.3,0,0.5,0.1c1.3,0.7,2.6,0.8,5.1,1c0,0,0,0,0.1,0l2.8,0.6C37.7,30,36.5,28.4,35.4,27.3
	C35.4,27.3,35.4,27.3,35.4,27.3z"/>
</svg>
