<?xml version="1.0" encoding="utf-8"?>
<!-- Generator: Adobe Illustrator 21.0.0, SVG Export Plug-In . SVG Version: 6.00 Build 0)  -->
<svg version="1.1" id="图层_1" xmlns="http://www.w3.org/2000/svg" xmlns:xlink="http://www.w3.org/1999/xlink" x="0px" y="0px"
	 viewBox="0 0 22 22" style="enable-background:new 0 0 22 22;" xml:space="preserve">
<style type="text/css">
	.st0{fill:#20ADE5;}
</style>
<path class="st0" d="M9.4,22c-0.4,0-0.8-0.3-0.8-0.8v-1.9c-0.6-0.2-1.2-0.4-1.8-0.7L5.4,20c-0.1,0.1-0.3,0.2-0.5,0.2
	S4.5,20.1,4.4,20l-2.3-2.3c-0.3-0.3-0.3-0.8,0-1.1l1.4-1.4c-0.3-0.6-0.5-1.1-0.7-1.8h-2c-0.4,0-0.8-0.3-0.8-0.8V9.4
	C0,9,0.3,8.6,0.8,8.6h1.9C2.9,8,3.2,7.4,3.5,6.8L2.1,5.5c-0.3-0.3-0.3-0.8,0-1.1l2.3-2.3C4.6,1.9,4.8,1.8,5,1.8S5.4,1.9,5.5,2
	l1.4,1.4C7.4,3.1,8,2.9,8.6,2.7V0.8C8.6,0.3,9,0,9.4,0h3.3c0.4,0,0.8,0.3,0.8,0.8v1.9c0.6,0.2,1.2,0.4,1.8,0.7L16.7,2
	c0.1-0.1,0.3-0.2,0.5-0.2s0.4,0.1,0.5,0.2L20,4.4c0.3,0.3,0.3,0.8,0,1.1l-1.4,1.4c0.3,0.6,0.6,1.1,0.7,1.8h1.9
	c0.2,0,0.4,0.1,0.5,0.2S22,9.2,22,9.4v3.3c0,0.4-0.3,0.8-0.8,0.8h-1.9c-0.2,0.6-0.4,1.2-0.7,1.8l1.4,1.4c0.3,0.3,0.3,0.8,0,1.1
	l-2.3,2.3c-0.1,0.1-0.3,0.2-0.5,0.2s-0.4-0.1-0.5-0.2l-1.4-1.4c-0.6,0.3-1.1,0.5-1.8,0.7v1.9c0,0.4-0.3,0.8-0.8,0.8H9.4V22z
	 M11.9,20.4v-2.2l0.1-0.1l1-0.3c0.5-0.2,1.1-0.4,1.6-0.6l0.9-0.5h0.1l1.6,1.6l1.2-1.2l-1.6-1.6v-0.1l0.5-0.9c0.3-0.5,0.5-1,0.6-1.6
	l0.3-1l0.1-0.1h2.2v-1.6h-2.2l-0.1-0.1l-0.3-1c-0.2-0.5-0.4-1.1-0.6-1.6l-0.5-0.9V6.5l1.6-1.6l-1.2-1.2l-1.6,1.6h-0.1l-0.9-0.5
	c-0.5-0.3-1-0.5-1.6-0.6l-1-0.3l-0.1-0.1V1.6h-1.7v2.2l-0.1,0.1l-1,0.3c-0.5,0.2-1,0.4-1.5,0.6L6.7,5.4H6.6L5,3.8L3.8,4.9l1.6,1.6
	v0.1L4.9,7.5C4.6,8,4.4,8.6,4.2,9.1l-0.3,1l-0.1,0.1H1.6v1.7h2.2l0.2,0l0.3,1c0.2,0.5,0.4,1.1,0.6,1.6l0.5,0.9v0.1l-1.6,1.6L5,18.2
	l1.6-1.6h0.1l0.9,0.5c0.5,0.3,1,0.5,1.6,0.6l1,0.3l0.1,0.1v2.2L11.9,20.4L11.9,20.4z"/>
<path class="st0" d="M11.3,14.8c-2.1,0-3.9-1.7-3.9-3.9C7.4,8.8,9.1,7,11.3,7s3.9,1.7,3.9,3.9C15.2,13.1,13.5,14.8,11.3,14.8z
	 M11.3,8.5c-0.6,0-1.3,0.3-1.7,0.7s-0.7,1.1-0.7,1.7s0.3,1.2,0.7,1.7c0.5,0.5,1.1,0.7,1.7,0.7s1.3-0.3,1.7-0.7
	c0.5-0.5,0.7-1.1,0.7-1.7c0-0.6-0.3-1.3-0.7-1.7S12,8.5,11.3,8.5z"/>
</svg>
