<?xml version="1.0" standalone="no"?><!DOCTYPE svg PUBLIC "-//W3C//DTD SVG 1.1//EN" "http://www.w3.org/Graphics/SVG/1.1/DTD/svg11.dtd"><svg t="1540888765351" class="icon" style="" viewBox="0 0 1024 1024" version="1.1" xmlns="http://www.w3.org/2000/svg" p-id="3936" xmlns:xlink="http://www.w3.org/1999/xlink" width="200" height="200"><defs><style type="text/css"></style></defs><path d="M895.887692 510.808872l-0.12382 0c-61.560054-158.704558-210.064296-270.734074-383.779733-270.734074-173.684738 0-322.204329 112.030539-383.764384 270.734074l-0.109494 0c0.01535 0.063445 0.030699 0.109494 0.062422 0.155543-0.031722 0.047072-0.047072 0.094144-0.062422 0.141216l0.109494 0c61.560054 159.946852 210.064296 272.818549 383.764384 272.818549 173.715437 0 322.219679-112.87272 383.779733-272.818549l0.12382 0c-0.030699-0.047072-0.046049-0.094144-0.062422-0.141216C895.841643 510.918365 895.856993 510.872317 895.887692 510.808872zM511.984139 729.284745c-144.458089 0-268.829701-89.348957-327.077314-218.320331 58.248635-128.009466 182.619224-216.703507 327.077314-216.703507 144.473439 0 268.844028 88.694041 327.108013 216.703507C780.828167 639.935788 656.457578 729.284745 511.984139 729.284745zM623.779318 447.920566c0 35.302017-28.647457 63.950498-63.981197 63.950498-35.349089 0-63.981197-28.64848-63.981197-63.950498s28.632107-63.949474 63.981197-63.949474c0.177032 0 0.352017 0.01228 0.529049 0.013303-15.042601-5.599532-31.324426-8.667404-48.327682-8.667404-76.258825 0-138.084938 61.576427-138.084938 137.553842 0 75.986625 61.826114 137.562029 138.084938 137.562029 76.259848 0 138.084938-61.575404 138.084938-137.562029 0-32.108279-11.04352-61.644989-29.550013-85.049025C622.629121 434.144818 623.779318 440.897615 623.779318 447.920566z" p-id="3937"></path></svg>