<?xml version="1.0" encoding="utf-8"?>
<!-- Generator: Adobe Illustrator 21.0.0, SVG Export Plug-In . SVG Version: 6.00 Build 0)  -->
<svg version="1.1" id="图层_1" xmlns="http://www.w3.org/2000/svg" xmlns:xlink="http://www.w3.org/1999/xlink" x="0px" y="0px"
	 viewBox="0 0 22 22" style="enable-background:new 0 0 22 22;" xml:space="preserve">
<style type="text/css">
	.st0{fill:#20ADE5;}
</style>
<g>
	<path class="st0" d="M1.5,21.5c-0.8,0-1.5-0.7-1.5-1.6V2.1c0-0.9,0.7-1.6,1.5-1.6h19c0.8,0,1.5,0.7,1.5,1.6v17.7
		c0,0.9-0.7,1.6-1.5,1.6L1.5,21.5L1.5,21.5z M20.4,19.7V6.3H1.6v13.4H20.4z M20.4,4.4V2.2H1.6v2.2H20.4z"/>
	<path class="st0" d="M4.9,17.9c-0.5,0-0.8-0.4-0.8-0.8c0-0.1,0-0.3,0.1-0.4l0,0l4.5-5.8c0.3-0.4,0.7-0.6,1.2-0.6
		c0.3,0,0.6,0.1,0.8,0.3l2.9,2l3.1-3.7l0,0c0.1-0.1,0.3-0.2,0.5-0.2c0.5,0,0.8,0.4,0.8,0.8c0,0.2,0,0.3-0.1,0.4l0,0l-3.1,3.7
		c-0.2,0.3-0.5,0.5-0.9,0.6c-0.1,0-0.2,0-0.3,0c-0.3,0-0.6-0.1-0.8-0.3l-2.9-2l-4.4,5.7l0,0C5.3,17.8,5.1,17.9,4.9,17.9z"/>
</g>
</svg>
