<?xml version="1.0" standalone="no"?><!DOCTYPE svg PUBLIC "-//W3C//DTD SVG 1.1//EN" "http://www.w3.org/Graphics/SVG/1.1/DTD/svg11.dtd"><svg t="1552103926472" class="icon" style="" viewBox="0 0 1024 1024" version="1.1" xmlns="http://www.w3.org/2000/svg" p-id="33150" xmlns:xlink="http://www.w3.org/1999/xlink" width="200" height="200"><defs><style type="text/css"></style></defs><path d="M455.236694 711.553918c215.564567 0 390.301264-112.715131 390.301264-251.766071 0-139.049916-174.736697-251.765047-390.301264-251.765047-215.550241 0-390.292054 112.715131-390.292054 251.765047 0 87.657432 69.445652 164.845419 174.776605 209.930243l-7.868201-1.983167 53.707203 209.639624 112.626104-167.714769-5.109368-1.289366C413.320025 710.462051 434.079838 711.553918 455.236694 711.553918zM898.904399 543.69077c0 0-60.933791 111.347994-168.546717 164.971285-114.795513 57.187467-276.725532 56.900941-276.725532 56.900941s171.052794 169.189354 389.488759 59.930951C1062.925033 715.555046 898.904399 543.69077 898.904399 543.69077z" p-id="33151"></path></svg>