<?xml version="1.0" standalone="no"?><!DOCTYPE svg PUBLIC "-//W3C//DTD SVG 1.1//EN" "http://www.w3.org/Graphics/SVG/1.1/DTD/svg11.dtd"><svg t="1552103231043" class="icon" style="" viewBox="0 0 1024 1024" version="1.1" xmlns="http://www.w3.org/2000/svg" p-id="7503" xmlns:xlink="http://www.w3.org/1999/xlink" width="200" height="200"><defs><style type="text/css"></style></defs><path d="M512.458002 1.381682c-261.137808 0-473.599488 213.229281-473.599488 475.283093 0 153.65322 72.809499 295.613321 196.101547 385.059289l-72.594571 119.239116c-6.278975 10.475193-5.188982 23.805861 2.737776 33.088714 5.48067 6.458082 13.392076 9.948107 21.497941 9.948107 3.57702 0 7.189861-0.690841 10.644065-2.103226l196.045256-85.265102c39.045296 10.168153 79.083357 15.321313 119.17259 15.321313 261.142926 0 473.599488-213.203694 473.599488-475.283093C986.05749 214.610962 773.600928 1.381682 512.458002 1.381682L512.458002 1.381682zM512.458002 895.201695c-38.159997 0-76.28929-5.291329-113.333706-15.766521-6.058929-1.745013-12.506776-1.330508-18.320074 1.028585l-126.101467 56.694999 42.494383-69.13525c7.911406-13.161796 3.919882-30.258825-8.986047-38.543797-120.718027-77.476512-192.800864-209.350338-192.800864-352.804702 0-230.771519 187.084796-418.536921 417.047775-418.536921s417.047775 187.765402 417.047775 418.536921C929.510894 707.466997 742.426098 895.201695 512.458002 895.201695L512.458002 895.201695z" p-id="7504"></path><path d="M743.65426 388.825651c0-31.338584-25.320593-56.751289-56.561948-56.751289-31.226002 0-56.546596 25.412705-56.546596 56.751289s25.320593 56.751289 56.546596 56.751289C718.333666 445.57694 743.65426 420.169352 743.65426 388.825651L743.65426 388.825651z" p-id="7505"></path><path d="M402.373806 388.825651c0-31.338584-25.320593-56.751289-56.561948-56.751289-31.23112 0-56.546596 25.412705-56.546596 56.751289s25.320593 56.751289 56.546596 56.751289C377.053212 445.57694 402.373806 420.169352 402.373806 388.825651L402.373806 388.825651z" p-id="7506"></path><path d="M648.031664 552.319514c-14.456483-5.9617-30.965018 0.997881-36.875545 15.490185-0.235398 0.583377-24.240835 57.447247-94.706593 57.447247-72.620158 0-91.963699-49.633071-94.005517-55.558949-4.830768-14.743054-20.704754-22.889857-35.437572-18.151201-14.886339 4.738656-23.109903 20.699636-18.361012 35.637149 1.228161 3.878943 31.420461 94.824291 147.804102 94.824291 108.001439 0 145.501299-88.893295 147.031384-92.690361C669.406788 574.820453 662.472794 558.245392 648.031664 552.319514L648.031664 552.319514z" p-id="7507"></path><path d="M208.232199 508.17223c-6.058929 0-10.951105 4.933115-10.951105 10.976692 0 6.094751 4.887059 11.027866 10.951105 11.027866 6.043577 0 10.935753-4.933115 10.935753-11.027866C219.167953 513.105345 214.280894 508.17223 208.232199 508.17223L208.232199 508.17223z" p-id="7508"></path><path d="M258.556111 508.17223c-6.058929 0-10.945988 4.933115-10.945988 10.976692 0 6.094751 4.887059 11.027866 10.945988 11.027866 6.048695 0 10.935753-4.933115 10.935753-11.027866C269.491864 513.105345 264.604806 508.17223 258.556111 508.17223L258.556111 508.17223z" p-id="7509"></path><path d="M233.414624 542.396994c-6.058929 0-10.96134 4.933115-10.96134 10.971575 0 6.069164 4.902411 11.002279 10.96134 11.002279 6.033343 0 10.920401-4.933115 10.920401-11.002279C244.335026 547.330108 239.447967 542.396994 233.414624 542.396994L233.414624 542.396994z" p-id="7510"></path><path d="M283.723184 542.396994c-6.048695 0-10.951105 4.933115-10.951105 10.971575 0 6.069164 4.902411 11.002279 10.951105 11.002279 6.048695 0 10.935753-4.933115 10.935753-11.002279C294.658937 547.330108 289.771879 542.396994 283.723184 542.396994L283.723184 542.396994z" p-id="7511"></path><path d="M258.556111 575.373126c-6.058929 0-10.945988 4.933115-10.945988 10.997161 0 6.069164 4.887059 11.002279 10.945988 11.002279 6.048695 0 10.935753-4.933115 10.935753-11.002279C269.491864 580.301123 264.604806 575.373126 258.556111 575.373126L258.556111 575.373126z" p-id="7512"></path><path d="M315.286931 508.17223c-6.058929 0-10.951105 4.933115-10.951105 10.976692 0 6.094751 4.887059 11.027866 10.951105 11.027866 6.048695 0 10.935753-4.933115 10.935753-11.027866C326.217567 513.105345 321.330508 508.17223 315.286931 508.17223L315.286931 508.17223z" p-id="7513"></path><path d="M733.521929 508.17223c-6.058929 0-10.945988 4.933115-10.945988 10.976692 0 6.094751 4.887059 11.027866 10.945988 11.027866 6.048695 0 10.935753-4.933115 10.935753-11.027866C744.457682 513.105345 739.570623 508.17223 733.521929 508.17223L733.521929 508.17223z" p-id="7514"></path><path d="M783.84584 508.17223c-6.058929 0-10.951105 4.933115-10.951105 10.976692 0 6.094751 4.887059 11.027866 10.951105 11.027866 6.048695 0 10.935753-4.933115 10.935753-11.027866C794.776476 513.105345 789.889418 508.17223 783.84584 508.17223L783.84584 508.17223z" p-id="7515"></path><path d="M758.704354 542.396994c-6.058929 0-10.96134 4.933115-10.96134 10.971575 0 6.069164 4.902411 11.002279 10.96134 11.002279 6.033343 0 10.920401-4.933115 10.920401-11.002279C769.624755 547.330108 764.737696 542.396994 758.704354 542.396994L758.704354 542.396994z" p-id="7516"></path><path d="M809.012913 542.396994c-6.048695 0-10.945988 4.933115-10.945988 10.971575 0 6.069164 4.902411 11.002279 10.945988 11.002279 6.048695 0 10.935753-4.933115 10.935753-11.002279C819.948667 547.330108 815.056491 542.396994 809.012913 542.396994L809.012913 542.396994z" p-id="7517"></path><path d="M783.84584 575.373126c-6.058929 0-10.951105 4.933115-10.951105 10.997161 0 6.069164 4.887059 11.002279 10.951105 11.002279 6.048695 0 10.935753-4.933115 10.935753-11.002279C794.776476 580.301123 789.889418 575.373126 783.84584 575.373126L783.84584 575.373126z" p-id="7518"></path><path d="M840.571543 508.17223c-6.058929 0-10.945988 4.933115-10.945988 10.976692 0 6.094751 4.887059 11.027866 10.945988 11.027866 6.048695 0 10.935753-4.933115 10.935753-11.027866C851.507296 513.105345 846.620237 508.17223 840.571543 508.17223L840.571543 508.17223z" p-id="7519"></path></svg>