<?xml version="1.0" encoding="utf-8"?>
<!-- Generator: Adobe Illustrator 21.0.0, SVG Export Plug-In . SVG Version: 6.00 Build 0)  -->
<svg version="1.1" id="图层_1" xmlns="http://www.w3.org/2000/svg" xmlns:xlink="http://www.w3.org/1999/xlink" x="0px" y="0px"
	 viewBox="0 0 39.4 35.4" style="enable-background:new 0 0 39.4 35.4;" xml:space="preserve">
<style type="text/css">
	.st0{fill:#CCCCCC;}
</style>
<path class="st0" d="M8.6,35.4l-0.2,0c-0.2,0-0.4,0-0.6-0.1C7,34.9,6.6,34,7,33.2c0.1-0.2,0.2-0.4,0.4-0.6c0.7-1.2,1.8-2.9,1.9-4.5
	C4.1,25.3,1,20.9,1,16.2c0-8,8.6-14.5,19.2-14.5c10.6,0,19.2,6.5,19.2,14.5s-8.6,14.5-19.2,14.5c-1.2,0-2.3-0.1-3.4-0.2
	c-1,1.2-4.4,4.3-8,4.9l-0.1,0L8.6,35.4z M20.2,5C11.5,5,4.3,10,4.3,16.2c0,3.6,2.5,7,6.6,9.1c1,0.5,1.5,1.5,1.5,2.5V28
	c0,0.7-0.2,1.4-0.3,2.1c0.8-0.6,1.6-1.3,2.2-2c0.5-0.6,1.3-1,2.2-1h0.3c1.1,0.2,2.2,0.2,3.3,0.2c8.8,0,15.9-5,15.9-11.2
	C36.1,10,29,5,20.2,5z"/>
<circle class="st0" cx="10.4" cy="15.9" r="3"/>
<ellipse transform="matrix(0.7071 -0.7071 0.7071 0.7071 -5.5974 18.3636)" class="st0" cx="19.4" cy="15.9" rx="3" ry="3"/>
<circle class="st0" cx="28.4" cy="15.9" r="3"/>
</svg>
